# xmcd CD database file
#
# Track frame offsets:
#	150
#	15324
#	31861
#	47200
#	65120
#	79200
#	94271
#	115922
#	129263
#	149302
#	165916
#	180666
#	190099
#	192501
#	194893
#	197201
#	198677
#	204775
#	206787
#	209417
#	211473
#	220404
#	222713
#	224816
#	228541
#	230833
#	236576
#	238915
#	241198
#	245340
#	247872
#	249752
#	251934
#	258546
#	260894
#	262855
#	265222
#	274061
#	276354
#	277902
#	280242
#	280981
#	289155
#	291558
#	293864
#	294737
#	302253
#	304582
#	306923
#	311323
#	318895
#	321107
#	323309
#	326414
#	332316
#	334520
#	336803
#
# Disc length: 4537 seconds
#
# Revision: 0
# Processed by: cddbd v1.5.2PL0 Copyright (c) Steve Scherf et al.
# Submitted via: CDex 1.70beta2
#
DISCID=8e11b739
DTITLE=Peter Kellert - Philipp Konowski - Smooth, Groovin' and Jazzy
DYEAR=1900
DGENRE=Jazz
TTITLE0=Fast Forward
TTITLE1=Go For A Walk
TTITLE2=Pictures From You
TTITLE3=Crystal Silence
TTITLE4=Letter From You
TTITLE5=Night In The City
TTITLE6=Easy Moving 
TTITLE7=Deep In My Heart 
TTITLE8=In Paris
TTITLE9=Once Again
TTITLE10=Closer
TTITLE11=Forever Yours 
TTITLE12=Fast Forward 
TTITLE13=Fast Forward 
TTITLE14=Fast Forward 
TTITLE15=Fast Forward 
TTITLE16=Go For A Walk
TTITLE17=Go For A Walk
TTITLE18=Go For A Walk
TTITLE19=Go For A Walk
TTITLE20=Pictures From You
TTITLE21=Pictures From You
TTITLE22=Pictures From You
TTITLE23=Pictures From You
TTITLE24=Pictures From You
TTITLE25=Crystal Silence
TTITLE26=Crystal Silence
TTITLE27=Crystal Silence
TTITLE28=Letter From You
TTITLE29=Letter From You
TTITLE30=Letter From You
TTITLE31=Letter From You
TTITLE32=Night In The City
TTITLE33=Night In The City
TTITLE34=Night In The City
TTITLE35=Night In The City
TTITLE36=Easy Moving
TTITLE37=Easy Moving
TTITLE38=Easy Moving
TTITLE39=Easy Moving
TTITLE40=Easy Moving
TTITLE41=Deep In My Heart 
TTITLE42=Deep In My Heart 
TTITLE43=Deep In My Heart 
TTITLE44=Deep In My Heart 
TTITLE45=In Paris
TTITLE46=In Paris
TTITLE47=In Paris
TTITLE48=In Paris
TTITLE49=Once Again 
TTITLE50=Once Again 
TTITLE51=Once Again 
TTITLE52=Once Again 
TTITLE53=Closer  
TTITLE54=Closer  
TTITLE55=Closer  
TTITLE56=Forever Yours 
EXTD=
EXTT0=
EXTT1=
EXTT2=
EXTT3=
EXTT4=
EXTT5=
EXTT6=
EXTT7=
EXTT8=
EXTT9=
EXTT10=
EXTT11=
EXTT12=
EXTT13=
EXTT14=
EXTT15=
EXTT16=
EXTT17=
EXTT18=
EXTT19=
EXTT20=
EXTT21=
EXTT22=
EXTT23=
EXTT24=
EXTT25=
EXTT26=
EXTT27=
EXTT28=
EXTT29=
EXTT30=
EXTT31=
EXTT32=
EXTT33=
EXTT34=
EXTT35=
EXTT36=
EXTT37=
EXTT38=
EXTT39=
EXTT40=
EXTT41=
EXTT42=
EXTT43=
EXTT44=
EXTT45=
EXTT46=
EXTT47=
EXTT48=
EXTT49=
EXTT50=
EXTT51=
EXTT52=
EXTT53=
EXTT54=
EXTT55=
EXTT56=
PLAYORDER=
